<?xml version="1.0" standalone="no"?>
<!DOCTYPE svg PUBLIC "-//W3C//DTD SVG 20010904//EN"
 "http://www.w3.org/TR/2001/REC-SVG-20010904/DTD/svg10.dtd">
<svg version="1.0" xmlns="http://www.w3.org/2000/svg"
 width="2431.000000pt" height="2431.000000pt" viewBox="0 0 2431.000000 2431.000000"
 preserveAspectRatio="xMidYMid meet">
<metadata>
Created by potrace 1.11, written by Peter Selinger 2001-2013
</metadata>
<g transform="translate(0.000000,2431.000000) scale(0.100000,-0.100000)"
fill="#000000" stroke="none">
<path d="M5945 21864 c-299 -32 -528 -85 -772 -180 -149 -57 -452 -208 -441
-219 2 -2 401 -181 888 -399 486 -218 909 -411 939 -429 203 -121 333 -383
303 -612 -6 -44 -18 -102 -27 -129 -28 -82 -505 -1098 -542 -1153 -88 -133
-255 -246 -413 -279 -98 -21 -252 -14 -335 14 -33 12 -242 103 -465 203 -223
100 -463 207 -535 239 -484 215 -1017 456 -1055 477 -25 14 -55 35 -67 45
l-21 20 -9 -48 c-15 -93 -9 -489 10 -614 116 -755 547 -1373 1209 -1733 241
-132 554 -231 858 -273 189 -26 525 -24 692 5 70 12 171 26 225 31 559 54
1157 -131 1588 -492 50 -41 331 -303 625 -582 294 -278 538 -505 542 -503 11
3 1098 1210 1098 1219 0 4 -242 236 -537 516 -296 280 -567 540 -602 577 -284
305 -481 739 -531 1170 -14 129 -12 360 5 505 45 378 -15 806 -162 1165 -284
694 -883 1207 -1623 1389 -221 54 -328 67 -580 71 -124 2 -243 1 -265 -1z"/>
<path d="M12305 19354 c-1120 -69 -2123 -336 -3098 -825 -98 -50 -187 -95
-198 -102 -22 -14 -22 -15 37 -153 73 -172 174 -332 297 -473 57 -65 538 -521
550 -521 5 0 77 32 160 71 347 162 759 307 1142 403 826 205 1714 240 2565
101 1106 -182 2152 -661 3010 -1378 1086 -908 1821 -2137 2089 -3497 73 -367
101 -638 108 -1045 9 -530 -35 -983 -143 -1442 -19 -81 -34 -151 -34 -155 0
-4 35 -8 78 -8 417 -1 863 -116 1227 -318 61 -34 92 -46 96 -39 8 15 71 289
98 427 241 1238 162 2523 -231 3720 -311 949 -790 1791 -1474 2590 -127 148
-573 596 -732 734 -1260 1095 -2773 1736 -4462 1892 -165 15 -925 28 -1085 18z"/>
<path d="M11904 17400 c-86 -22 -169 -63 -248 -121 -34 -26 -206 -207 -415
-439 -648 -717 -1016 -1126 -1029 -1142 -10 -12 7 -8 60 13 84 33 179 38 247
14 23 -8 267 -155 541 -326 274 -171 501 -312 503 -313 5 -1 767 840 1054
1162 210 236 249 498 116 772 -39 81 -59 108 -137 185 -77 76 -106 98 -186
137 -52 26 -127 54 -167 62 -97 22 -249 20 -339 -4z"/>
<path d="M6578 16362 c-859 -1115 -1381 -2415 -1522 -3792 -53 -515 -46 -1163
19 -1675 145 -1143 544 -2215 1187 -3182 722 -1086 1720 -1977 2883 -2574 222
-114 434 -213 441 -206 5 5 56 1559 52 1561 -170 99 -333 200 -438 271 -1149
772 -1999 1882 -2426 3171 -272 823 -362 1698 -264 2566 133 1165 612 2273
1384 3196 61 73 112 137 114 141 4 11 -213 215 -305 286 -242 187 -562 318
-879 360 -63 8 -121 15 -127 15 -7 0 -61 -62 -119 -138z"/>
<path d="M13400 16333 c-60 -10 -153 -47 -207 -82 -75 -49 -71 -45 -728 -776
-307 -341 -576 -639 -598 -662 l-40 -42 32 -93 c44 -126 118 -270 206 -403 94
-142 144 -197 274 -301 125 -101 388 -278 413 -278 23 -1 1444 1574 1480 1640
76 141 79 330 9 503 -74 184 -262 367 -453 444 -118 47 -281 68 -388 50z"/>
<path d="M9757 15166 l-648 -261 -531 -850 c-291 -467 -543 -876 -559 -907
-82 -161 -110 -391 -71 -578 47 -230 170 -418 368 -566 60 -45 195 -203 923
-1080 l852 -1027 -6 -101 c-22 -357 -304 -6991 -298 -6997 5 -4 89 -25 188
-48 1291 -289 2640 -302 3935 -36 278 57 856 207 876 228 3 2 -49 1343 -115
2978 -66 1636 -122 3018 -123 3073 l-3 99 80 22 c251 69 474 240 594 456 l32
57 -360 341 c-198 187 -367 341 -375 341 -35 0 -209 65 -295 110 -247 131
-486 362 -603 586 -40 75 -98 238 -98 273 0 28 -19 27 -80 -4 -148 -75 -399
-106 -583 -71 -424 80 -761 388 -868 794 -12 43 -23 126 -26 188 l-6 111 -116
7 c-223 14 -404 50 -573 115 -117 46 -162 70 -458 256 -191 120 -330 199 -455
258 -99 47 -181 90 -183 96 -3 9 117 211 142 239 9 9 104 -46 436 -253 428
-267 491 -301 652 -345 265 -72 600 -66 851 17 227 75 375 197 466 385 40 83
88 219 78 223 -1 1 -47 27 -102 60 -369 216 -658 434 -787 593 -152 189 -298
454 -363 662 -20 63 -40 122 -44 130 -7 14 -1080 691 -1091 689 -3 -1 -297
-119 -653 -263z"/>
<path d="M14535 14886 c-126 -25 -216 -70 -311 -155 -28 -25 -221 -235 -430
-466 -208 -231 -456 -506 -551 -611 l-172 -191 22 -44 c32 -64 29 -175 -6
-292 -125 -407 -406 -660 -864 -777 -38 -9 -43 -14 -49 -47 -4 -20 -4 -70 -1
-112 27 -345 318 -641 668 -679 194 -21 368 29 499 144 63 56 64 57 1139 1248
442 490 821 918 843 951 62 94 83 178 82 320 0 104 -4 131 -28 200 -65 190
-195 340 -375 434 -145 75 -323 105 -466 77z"/>
<path d="M15526 13414 c-73 -18 -177 -72 -239 -125 -26 -23 -251 -267 -500
-544 -1091 -1212 -1050 -1166 -1069 -1220 -21 -61 -22 -102 -4 -180 56 -236
289 -499 560 -630 116 -56 200 -78 301 -79 138 -1 169 18 345 213 63 71 299
332 524 582 225 250 504 559 620 688 116 129 226 255 245 280 71 97 103 201
102 336 0 109 -19 185 -71 290 -92 188 -271 333 -476 385 -92 24 -249 26 -338
4z"/>
<path d="M15578 11082 c-157 -175 -353 -392 -436 -483 -101 -111 -171 -179
-211 -205 -33 -22 -59 -42 -58 -46 1 -3 216 -208 477 -454 543 -512 636 -603
720 -714 274 -360 411 -821 371 -1247 -50 -518 5 -870 194 -1258 259 -531 750
-929 1331 -1080 207 -54 331 -69 574 -69 312 -1 538 37 819 137 100 35 458
204 449 211 -4 3 -161 74 -948 426 -322 144 -611 275 -643 292 -74 40 -184
156 -225 237 -65 130 -78 293 -34 421 28 80 438 956 474 1013 69 109 209 206
344 241 81 21 212 19 294 -3 80 -21 1774 -780 1847 -827 l53 -34 7 28 c4 15 8
122 8 237 0 230 -14 343 -65 541 -188 732 -756 1288 -1509 1479 -167 42 -279
56 -486 62 -199 5 -263 1 -465 -33 -131 -22 -422 -22 -560 0 -292 45 -553 147
-791 307 -129 86 -167 120 -669 595 -254 240 -487 460 -519 489 l-57 53 -286
-316z"/>
<path d="M16174 6716 c-278 -187 -757 -434 -1106 -572 l-98 -38 0 -51 c0 -96
40 -1439 43 -1442 7 -6 401 132 578 202 500 199 943 428 1378 712 79 52 142
95 140 97 -2 2 -51 39 -109 82 -303 228 -564 562 -721 927 -26 60 -49 110 -51
112 -2 3 -26 -11 -54 -29z"/>
</g>
</svg>
